<svg id="logo" xmlns="http://www.w3.org/2000/svg" viewBox="0 0 1024 1024"><defs><style>.cls-1{fill:#242338;}.cls-2{fill:#fc2d76;}.cls-3{fill:#ffa5c5;}</style></defs><title>a</title><rect id="background" class="cls-1" width="1024" height="1024"/><g id="body"><path class="cls-2" d="M398.59,774.43l22.67,127.94s49.37,25.1,87,4.27c4.28-11.34,6.29-22.87,11.14-36.24C452.24,831.22,398.59,774.43,398.59,774.43Z"/><path class="cls-2" d="M695.73,417.77c-11.53-23.43-48.9-38.47-57-46.61-10.52-10.55-11-12.5-15.71-34.61-.88-4.11-1.51-8.7-6.14-6.13-3.34,1.86-9.91,15-12.64,23.55,2.41-19.23,12.83-34.34,14.33-37,10.24-22.5,32.91-61.38,45.94-98.56,12-34.35,22.46-54.7,25.23-71.78,2.72-16.85,4.28-18.28-.93-29.62-7.44-4.84-56.51-7.52-97-6.94-69.65,1-105.27,3-136,22.81-9.43,6.09-12.56,11.79-19.24,22.31,28.08-25.41,87.55-14.7,93.74-14.88,34.71,3,65.58,4.72,96.32,19.84,3.23,1.73-18.59,41.41-23.18,58.26.12-.19.24-.41.36-.62h0c-5.39,12.64,6.54,13.91-4.43,28.32C584.58,265.49,559,304.47,546.5,293c-6-7.59-4.08-15.25,1.65-18.72,4.58-2.23,21.62-10.74,31-18.47,9.55-7.87,15.71-11,11-20.33-3.07-6-8.09-5.7-6.28-10,2.24-7.07-3.19-4.55-4.32-8.49-1.94-6.77-2.3-5.28-3.5-6.1.23-.85,13.26-50.57,11.42-55.23s-25.95-10.12-65.12-11c-8.85.28-13.16,0-19.6,2.92,4.84.65,19.88,6.25,30.75,14.54,4.71,3.6,14.37-5.58,16.61,3.85,3,12.52,26.68,25.3,26.22,28.06l-2.64,15.82s-3.19-1-6.83-5.3c1.81-6.83-.33-10.36-6.88-11.06-.3-.25-24.81-3.22-27.29-10.51,8.19,5.94,25.15,8.23,24.8,8-2.81-2-5.69-2.94-9-4.39-4.84-2.16-6.74-6.88-8-9.62a5.46,5.46,0,0,0,1.86-5.67c-.88,3.58-3.2,4.22-3.49,4a46.33,46.33,0,0,0-4.88-3.72c-2.64-2-5.92-3.18-8.37-4.7-3.93-2.43-6.68-3.07-9.84-5.69-3.41-2.83-7.41-6.19-19.35-9.49,0,0,0-.07-.05-.1C472,140.32,444.75,155,431.46,171.23c-8.28,10.13-19,25.72-15.4,46.58,1.18,6.95.82,8.59-1.86,14.75-14.34,33-8.06,48,5.59,95.45,13.27,46.12,8.18,76.37,8.18,76.37s-7.19-12.65-13.38-39.67-6.45-72.15-6.45-72.15-4.22,17.85-1,62.48c6.2,64.71,28,84.48,43.33,95.83s19.87,15.86,21.55,20.88-.92,14.59-8,17.73c-9.09,4-27.14,3.24-27.14,3.24s23.53,7.85,34.86-2.06c14.56-12.73,7.55-32.35-10.11-45.74,10,4.76,17.21,10.61,22.29,17-3.22-9.79-7.75-18.91-9.24-31.49-2.56-21.57,5.87-50.08,5.87-50.08s-7.94,28.51,1.48,56c7.29,21.28,14.89,34.37,12.1,48.18-10.59,22.31-9.9,28.3-8.39,35.38,2.12,10,6.77,14.51,24.23,10.44-48.16,2.95,8.51-45.52-.92-80.23C501.13,421,540.63,438.4,507,366.82,489.51,329.63,535.54,313,509,284.07c-24.8-27-19.17-47.32-7.94-58.83-5.43,19.16-9.28,35,9.08,55,6.18,6.73,20.18,13.41,11.69,27.69C513,320,507,336.67,507.55,348.78c1,46.3,43.56,52.41,6.69,83.74-9.92,8.43,7.44,19.84-4.28,51.26,5.95,26.09,3.06,43.14-4.38,70.48s-46.3,50.58-66.57,59.88c-19.32,8.85-65.3,24.8-75.23,68.59-13.47-1.08-48.7-6.5-52.78-33.73-6-40,46-115,26-159-18.27-40.19-71-61-66-124,5.79-72.94,61-151,70-157,12,8,5,17,3,19,24-18,17-63,11-74-5,28-30,40-41,53,16-8,22-1,22-1s-77,94.15-77,166c0,78,76.62,103.11,68,151-9,50-58,133-4,163,17.48,8.74,31.06,11.24,38.8,11.89-2.23,43,24.77,62.57,33.69,71-15.8-17.48-25.66-40.91-17.85-75.87s24.18-41.28,52.07-56.16c-21.57,13.39-55.42,59.14-37.56,105.25s91,94.29,125.44,118.83c2.7,1.92,6.29,4.55,10.37,7.58,18.23,14.29,37.07,28.74,51.63,39.09,21.93,9.8,77.22,10,90.65-.09l-.37-.91,0,.07c-21-54.12-47.53-95.25-62.5-121.8-19.71-35-52-66.12-66.26-76.61-19.3-14.18-8.91-37.9-8.91-37.9l0,0c-1.54,18.53,7.19,23.16,10.33,28.43,0,0,1.31-15.8,13.39-33.84s21.39-40.6,30.68-52.13,40.36-44.19,52.63-66.32,18.12-31.57,19.16-56.73c-27.81,4.21-42.2-12.52-47-20.21,0,0,24.18,26.16,61.37,11C697.65,470.36,703.64,433.83,695.73,417.77ZM572.61,213.53a8,8,0,0,0,3.19-1.64c1.55-.94,2,4.51,3.88,7a3.5,3.5,0,0,0,.66.67,2.85,2.85,0,0,0,.37.23,2,2,0,0,0,.6.21c3,.55,3.34,3,.9,5.9-2.12,2.48-3.3,2.38-15.72,7.81C566.49,233.67,569,214.79,572.61,213.53ZM433.54,419.07c37.75-9.11,19.41-44.93,8.68-78.78-17.86-56.28-19.28-86.89-15-110.52s13.26-38.87,13.26-38.87a195.12,195.12,0,0,0-10.77,69.92c1.47,41.68,28.43,100.39,31.16,126.08C463.23,409,452,418.33,433.54,419.07Zm64.34-50.76c-14.88,5.2-27.81-1.15-34.65-14.26-18.91-36.2,3.43-59.84,8.24-83.37,4.75-23.24-15-55.79-15-55.79s17,18.08,20.39,48.17c3,26.4-17.73,43-15,68.69C464.17,353.88,478,369.24,497.88,368.31ZM507,200.71c-.39-16.91-5.29-37.54-10.58-49.06.17.13,9.36,7.24,11.19,24.1A95.55,95.55,0,0,1,507,200.71Zm2.89,385.72c-6.69,13.55-21.35,23.85-43.33,30.5,22.11-20.78,28.19-27.1,37.23-39.87,13.58-19.17,10.42-76.49,10.42-76.49C522.9,542.22,516.74,572.48,509.86,586.43ZM527,209.07c-2.42,3.47-9.55,7.87-12.27,7.37.93-6.82,1.05-10.84,4.09-15.37,3.77-5.62,10.72-.62,10.72-.62A14,14,0,0,1,527,209.07Z"/></g><g id="guang"><path class="cls-3" d="M686.85,443a4.38,4.38,0,0,1-3.28-1.34A49.5,49.5,0,0,1,682,463c4.49-7.41,6.91-14.32,7.54-20.81A4.52,4.52,0,0,1,686.85,443Z"/><path class="cls-3" d="M686.85,433.54a4.52,4.52,0,0,1,2.55.73c-2.5-18.71-20.5-33.95-46.4-48.27,0,0,32.16,20.41,39.57,50.54A4.3,4.3,0,0,1,686.85,433.54Z"/><path class="cls-3" d="M410,738c-16-88,83-95,97-127C497,630,380,649,410,738Z"/><path class="cls-3" d="M535,732c39,30,80,94,86,109C617,812,563,742,535,732Z"/></g></svg>